# xmcd CD database file
#
# Track frame offsets:
#	150
#	26861
#	46383
#	64731
#	87015
#	107192
#	119681
#	135570
#	153693
#	178511
#	204960
#	218998
#
# Disc length: 3187 seconds
#
# Revision: 0
# Processed by: cddbd v1.5.1PL2 Copyright (c) Steve Scherf et al.
# Submitted via: CDex 1.51
#
DISCID=ad0c710c
DTITLE=The Boostars - About A Boy
DYEAR=2005
DGENRE=Rock
TTITLE0=グッバイガール
TTITLE1=明日へのステップ
TTITLE2=太陽の匂い
TTITLE3=恋と珈琲
TTITLE4=Stay
TTITLE5=Killing Time
TTITLE6=夏の虫
TTITLE7=Two Hearts Beat As One
TTITLE8=lalala Lovetrain
TTITLE9=千の天使
TTITLE10=Boys Don't Cry
TTITLE11=Everything Flows
EXTD=YEAR: 2005
EXTT0=
EXTT1=
EXTT2=
EXTT3=
EXTT4=
EXTT5=
EXTT6=
EXTT7=
EXTT8=
EXTT9=
EXTT10=
EXTT11=
PLAYORDER=
